<?xml version="1.0" encoding="UTF-8" standalone="no"?>
<!DOCTYPE svg PUBLIC "-//W3C//DTD SVG 1.1//EN"
 "http://www.w3.org/Graphics/SVG/1.1/DTD/svg11.dtd">
<!-- Generated by graphviz version 14.1.1 (20251213.1925)
 -->
<!-- Title: Story Pages: 1 -->
<svg width="467pt" height="594pt"
 viewBox="0.00 0.00 467.00 594.00" xmlns="http://www.w3.org/2000/svg" xmlns:xlink="http://www.w3.org/1999/xlink">
<g id="graph0" class="graph" transform="scale(1 1) rotate(0) translate(4 589.75)">
<title>Story</title>
<polygon fill="white" stroke="none" points="-4,4 -4,-589.75 463.12,-589.75 463.12,4 -4,4"/>
<!-- start -->
<g id="node1" class="node">
<title>start</title>
<polygon fill="#4caf50" stroke="black" points="427.88,-585.75 326.38,-585.75 326.38,-540.25 427.88,-540.25 427.88,-585.75"/>
<text xml:space="preserve" text-anchor="middle" x="377.12" y="-568.45" font-family="Microsoft YaHei" font-size="14.00" fill="white">异常事件出现</text>
<text xml:space="preserve" text-anchor="middle" x="377.12" y="-549.7" font-family="Microsoft YaHei" font-size="14.00" fill="white">[start]</text>
</g>
<!-- xiashuidao -->
<g id="node2" class="node">
<title>xiashuidao</title>
<polygon fill="#2196f3" stroke="black" points="96.25,-359 0,-359 0,-313.5 96.25,-313.5 96.25,-359"/>
<text xml:space="preserve" text-anchor="middle" x="48.12" y="-341.7" font-family="Microsoft YaHei" font-size="14.00" fill="white">进入下水道</text>
<text xml:space="preserve" text-anchor="middle" x="48.12" y="-322.95" font-family="Microsoft YaHei" font-size="14.00" fill="white">[xiashuidao]</text>
</g>
<!-- start&#45;&gt;xiashuidao -->
<g id="edge8" class="edge">
<title>start&#45;&gt;xiashuidao</title>
<path fill="none" stroke="#ff9800" d="M326.08,-563C233.67,-563 48.12,-563 48.12,-563 48.12,-563 48.12,-370.75 48.12,-370.75"/>
<polygon fill="#ff9800" stroke="#ff9800" points="51.63,-370.75 48.13,-360.75 44.63,-370.75 51.63,-370.75"/>
<text xml:space="preserve" text-anchor="middle" x="101.5" y="-436.82" font-family="Microsoft YaHei" font-size="14.00" fill="#ff9800">下水道</text>
</g>
<!-- xijie -->
<g id="node3" class="node">
<title>xijie</title>
<polygon fill="#2196f3" stroke="black" points="313.62,-463.5 240.62,-463.5 240.62,-418 313.62,-418 313.62,-463.5"/>
<text xml:space="preserve" text-anchor="middle" x="277.12" y="-446.2" font-family="Microsoft YaHei" font-size="14.00" fill="white">进入锡街</text>
<text xml:space="preserve" text-anchor="middle" x="277.12" y="-427.45" font-family="Microsoft YaHei" font-size="14.00" fill="white">[xijie]</text>
</g>
<!-- start&#45;&gt;xijie -->
<g id="edge10" class="edge">
<title>start&#45;&gt;xijie</title>
<path fill="none" stroke="#ff9800" d="M334.25,-540C334.25,-506.44 334.25,-448 334.25,-448 334.25,-448 325.46,-448 325.46,-448"/>
<polygon fill="#ff9800" stroke="#ff9800" points="325.46,-444.5 315.46,-448 325.46,-451.5 325.46,-444.5"/>
<text xml:space="preserve" text-anchor="middle" x="322.38" y="-497.95" font-family="Microsoft YaHei" font-size="14.00" fill="#ff9800">锡街</text>
</g>
<!-- duanlujie -->
<g id="node4" class="node">
<title>duanlujie</title>
<polygon fill="#2196f3" stroke="black" points="459.12,-359 371.12,-359 371.12,-313.5 459.12,-313.5 459.12,-359"/>
<text xml:space="preserve" text-anchor="middle" x="415.12" y="-341.7" font-family="Microsoft YaHei" font-size="14.00" fill="white">锻炉街</text>
<text xml:space="preserve" text-anchor="middle" x="415.12" y="-322.95" font-family="Microsoft YaHei" font-size="14.00" fill="white">[duanlujie]</text>
</g>
<!-- start&#45;&gt;duanlujie -->
<g id="edge12" class="edge">
<title>start&#45;&gt;duanlujie</title>
<path fill="none" stroke="#ff9800" d="M399.5,-540.01C399.5,-540.01 399.5,-370.81 399.5,-370.81"/>
<polygon fill="#ff9800" stroke="#ff9800" points="403,-370.81 399.5,-360.81 396,-370.81 403,-370.81"/>
<text xml:space="preserve" text-anchor="middle" x="429.5" y="-436.82" font-family="Microsoft YaHei" font-size="14.00" fill="#ff9800">锻炉街</text>
</g>
<!-- target_confirmed -->
<g id="node5" class="node">
<title>target_confirmed</title>
<polygon fill="#4caf50" stroke="black" points="347,-254.5 207.25,-254.5 207.25,-209 347,-209 347,-254.5"/>
<text xml:space="preserve" text-anchor="middle" x="277.12" y="-237.2" font-family="Microsoft YaHei" font-size="14.00" fill="white">找到克伦可藏身处</text>
<text xml:space="preserve" text-anchor="middle" x="277.12" y="-218.45" font-family="Microsoft YaHei" font-size="14.00" fill="white">[target_confirmed]</text>
</g>
<!-- start&#45;&gt;target_confirmed -->
<g id="edge1" class="edge">
<title>start&#45;&gt;target_confirmed</title>
<path fill="none" stroke="black" d="M337.44,-539.97C337.44,-539.97 337.44,-266.14 337.44,-266.14"/>
<polygon fill="black" stroke="black" points="340.94,-266.14 337.44,-256.14 333.94,-266.14 340.94,-266.14"/>
</g>
<!-- xiashuidao&#45;&gt;target_confirmed -->
<g id="edge2" class="edge">
<title>xiashuidao&#45;&gt;target_confirmed</title>
<path fill="none" stroke="black" d="M96.46,-344C147.3,-344 220,-344 220,-344 220,-344 220,-266.25 220,-266.25"/>
<polygon fill="black" stroke="black" points="223.5,-266.25 220,-256.25 216.5,-266.25 223.5,-266.25"/>
</g>
<!-- xiashuidao&#45;&gt;target_confirmed -->
<g id="edge9" class="edge">
<title>xiashuidao&#45;&gt;target_confirmed</title>
<path fill="none" stroke="#9e9e9e" stroke-dasharray="5,2" d="M96.44,-329C145.29,-329 213.62,-329 213.62,-329 213.62,-329 213.62,-266.31 213.62,-266.31"/>
<polygon fill="#9e9e9e" stroke="#9e9e9e" points="217.13,-266.31 213.63,-256.31 210.13,-266.31 217.13,-266.31"/>
</g>
<!-- xijie&#45;&gt;target_confirmed -->
<g id="edge11" class="edge">
<title>xijie&#45;&gt;target_confirmed</title>
<path fill="none" stroke="#9e9e9e" stroke-dasharray="5,2" d="M314,-433C323.48,-433 331.06,-433 331.06,-433 331.06,-433 331.06,-266.35 331.06,-266.35"/>
<polygon fill="#9e9e9e" stroke="#9e9e9e" points="334.56,-266.35 331.06,-256.35 327.56,-266.35 334.56,-266.35"/>
</g>
<!-- falishi -->
<g id="node6" class="node">
<title>falishi</title>
<polygon fill="#2196f3" stroke="black" points="327.88,-359 226.38,-359 226.38,-313.5 327.88,-313.5 327.88,-359"/>
<text xml:space="preserve" text-anchor="middle" x="277.12" y="-341.7" font-family="Microsoft YaHei" font-size="14.00" fill="white">法莉什的工坊</text>
<text xml:space="preserve" text-anchor="middle" x="277.12" y="-322.95" font-family="Microsoft YaHei" font-size="14.00" fill="white">[falishi]</text>
</g>
<!-- xijie&#45;&gt;falishi -->
<g id="edge3" class="edge">
<title>xijie&#45;&gt;falishi</title>
<path fill="none" stroke="black" d="M277.12,-417.56C277.12,-417.56 277.12,-370.89 277.12,-370.89"/>
<polygon fill="black" stroke="black" points="280.63,-370.89 277.13,-360.89 273.63,-370.89 280.63,-370.89"/>
</g>
<!-- duanlujie&#45;&gt;target_confirmed -->
<g id="edge4" class="edge">
<title>duanlujie&#45;&gt;target_confirmed</title>
<path fill="none" stroke="black" d="M370.93,-344C354.88,-344 340.62,-344 340.62,-344 340.62,-344 340.62,-266.25 340.62,-266.25"/>
<polygon fill="black" stroke="black" points="344.13,-266.25 340.63,-256.25 337.13,-266.25 344.13,-266.25"/>
</g>
<!-- duanlujie&#45;&gt;target_confirmed -->
<g id="edge13" class="edge">
<title>duanlujie&#45;&gt;target_confirmed</title>
<path fill="none" stroke="#9e9e9e" stroke-dasharray="5,2" d="M370.77,-329C356.27,-329 343.81,-329 343.81,-329 343.81,-329 343.81,-266.31 343.81,-266.31"/>
<polygon fill="#9e9e9e" stroke="#9e9e9e" points="347.31,-266.31 343.81,-256.31 340.31,-266.31 347.31,-266.31"/>
</g>
<!-- miandui -->
<g id="node7" class="node">
<title>miandui</title>
<polygon fill="#4caf50" stroke="black" points="320.75,-150 233.5,-150 233.5,-104.5 320.75,-104.5 320.75,-150"/>
<text xml:space="preserve" text-anchor="middle" x="277.12" y="-132.7" font-family="Microsoft YaHei" font-size="14.00" fill="white">直面克伦可</text>
<text xml:space="preserve" text-anchor="middle" x="277.12" y="-113.95" font-family="Microsoft YaHei" font-size="14.00" fill="white">[miandui]</text>
</g>
<!-- target_confirmed&#45;&gt;miandui -->
<g id="edge5" class="edge">
<title>target_confirmed&#45;&gt;miandui</title>
<path fill="none" stroke="black" d="M277.12,-208.56C277.12,-208.56 277.12,-161.89 277.12,-161.89"/>
<polygon fill="black" stroke="black" points="280.63,-161.89 277.13,-151.89 273.63,-161.89 280.63,-161.89"/>
</g>
<!-- falishi&#45;&gt;target_confirmed -->
<g id="edge6" class="edge">
<title>falishi&#45;&gt;target_confirmed</title>
<path fill="none" stroke="black" d="M277.12,-313.06C277.12,-313.06 277.12,-266.39 277.12,-266.39"/>
<polygon fill="black" stroke="black" points="280.63,-266.39 277.13,-256.39 273.63,-266.39 280.63,-266.39"/>
</g>
<!-- yasong -->
<g id="node8" class="node">
<title>yasong</title>
<polygon fill="#4caf50" stroke="black" points="314,-45.5 240.25,-45.5 240.25,0 314,0 314,-45.5"/>
<text xml:space="preserve" text-anchor="middle" x="277.12" y="-28.2" font-family="Microsoft YaHei" font-size="14.00" fill="white">押送</text>
<text xml:space="preserve" text-anchor="middle" x="277.12" y="-9.45" font-family="Microsoft YaHei" font-size="14.00" fill="white">[yasong]</text>
</g>
<!-- miandui&#45;&gt;yasong -->
<g id="edge7" class="edge">
<title>miandui&#45;&gt;yasong</title>
<path fill="none" stroke="black" d="M277.12,-104.06C277.12,-104.06 277.12,-57.39 277.12,-57.39"/>
<polygon fill="black" stroke="black" points="280.63,-57.39 277.13,-47.39 273.63,-57.39 280.63,-57.39"/>
</g>
</g>
</svg>
