<?xml version="1.0" encoding="UTF-8" standalone="no"?>
<!DOCTYPE svg PUBLIC "-//W3C//DTD SVG 1.1//EN"
 "http://www.w3.org/Graphics/SVG/1.1/DTD/svg11.dtd">
<!-- Generated by graphviz version 14.1.1 (20251213.1925)
 -->
<!-- Title: Story Pages: 1 -->
<svg width="928pt" height="856pt"
 viewBox="0.00 0.00 928.00 856.00" xmlns="http://www.w3.org/2000/svg" xmlns:xlink="http://www.w3.org/1999/xlink">
<g id="graph0" class="graph" transform="scale(1 1) rotate(0) translate(4 852)">
<title>Story</title>
<polygon fill="white" stroke="none" points="-4,4 -4,-852 924,-852 924,4 -4,4"/>
<!-- start -->
<g id="node1" class="node">
<title>start</title>
<polygon fill="#4caf50" stroke="black" points="691,-848 589.5,-848 589.5,-802.5 691,-802.5 691,-848"/>
<text xml:space="preserve" text-anchor="middle" x="640.25" y="-830.7" font-family="Microsoft YaHei" font-size="14.00" fill="white">异常事件出现</text>
<text xml:space="preserve" text-anchor="middle" x="640.25" y="-811.95" font-family="Microsoft YaHei" font-size="14.00" fill="white">[start]</text>
</g>
<!-- official_info -->
<g id="node2" class="node">
<title>official_info</title>
<polygon fill="#2196f3" stroke="black" points="471.62,-725.75 370.88,-725.75 370.88,-680.25 471.62,-680.25 471.62,-725.75"/>
<text xml:space="preserve" text-anchor="middle" x="421.25" y="-708.45" font-family="Microsoft YaHei" font-size="14.00" fill="white">官方信息</text>
<text xml:space="preserve" text-anchor="middle" x="421.25" y="-689.7" font-family="Microsoft YaHei" font-size="14.00" fill="white">[official_info]</text>
</g>
<!-- start&#45;&gt;official_info -->
<g id="edge14" class="edge">
<title>start&#45;&gt;official_info</title>
<path fill="none" stroke="#ff9800" d="M589.18,-825C524.47,-825 421.25,-825 421.25,-825 421.25,-825 421.25,-737.75 421.25,-737.75"/>
<polygon fill="#ff9800" stroke="#ff9800" points="424.75,-737.75 421.25,-727.75 417.75,-737.75 424.75,-737.75"/>
<text xml:space="preserve" text-anchor="middle" x="461.25" y="-760.2" font-family="Microsoft YaHei" font-size="14.00" fill="#ff9800">询问守卫或治安官</text>
</g>
<!-- tavern_info -->
<g id="node3" class="node">
<title>tavern_info</title>
<polygon fill="#2196f3" stroke="black" points="613.88,-725.75 514.62,-725.75 514.62,-680.25 613.88,-680.25 613.88,-725.75"/>
<text xml:space="preserve" text-anchor="middle" x="564.25" y="-708.45" font-family="Microsoft YaHei" font-size="14.00" fill="white">酒馆传闻</text>
<text xml:space="preserve" text-anchor="middle" x="564.25" y="-689.7" font-family="Microsoft YaHei" font-size="14.00" fill="white">[tavern_info]</text>
</g>
<!-- start&#45;&gt;tavern_info -->
<g id="edge16" class="edge">
<title>start&#45;&gt;tavern_info</title>
<path fill="none" stroke="#ff9800" d="M601.69,-802.26C601.69,-802.26 601.69,-737.4 601.69,-737.4"/>
<polygon fill="#ff9800" stroke="#ff9800" points="605.19,-737.4 601.69,-727.4 598.19,-737.4 605.19,-737.4"/>
<text xml:space="preserve" text-anchor="middle" x="616.12" y="-760.2" font-family="Microsoft YaHei" font-size="14.00" fill="#ff9800">混入酒馆或黑市</text>
</g>
<!-- crime_scene -->
<g id="node4" class="node">
<title>crime_scene</title>
<polygon fill="#2196f3" stroke="black" points="763.62,-725.75 656.88,-725.75 656.88,-680.25 763.62,-680.25 763.62,-725.75"/>
<text xml:space="preserve" text-anchor="middle" x="710.25" y="-708.45" font-family="Microsoft YaHei" font-size="14.00" fill="white">现场调查</text>
<text xml:space="preserve" text-anchor="middle" x="710.25" y="-689.7" font-family="Microsoft YaHei" font-size="14.00" fill="white">[crime_scene]</text>
</g>
<!-- start&#45;&gt;crime_scene -->
<g id="edge18" class="edge">
<title>start&#45;&gt;crime_scene</title>
<path fill="none" stroke="#ff9800" d="M673.94,-802.26C673.94,-802.26 673.94,-737.4 673.94,-737.4"/>
<polygon fill="#ff9800" stroke="#ff9800" points="677.44,-737.4 673.94,-727.4 670.44,-737.4 677.44,-737.4"/>
<text xml:space="preserve" text-anchor="middle" x="757" y="-760.2" font-family="Microsoft YaHei" font-size="14.00" fill="#ff9800">调查案发现场</text>
</g>
<!-- target_confirmed -->
<g id="node5" class="node">
<title>target_confirmed</title>
<polygon fill="#4caf50" stroke="black" points="634.12,-621.25 494.38,-621.25 494.38,-575.75 634.12,-575.75 634.12,-621.25"/>
<text xml:space="preserve" text-anchor="middle" x="564.25" y="-603.95" font-family="Microsoft YaHei" font-size="14.00" fill="white">确认克伦可在逃</text>
<text xml:space="preserve" text-anchor="middle" x="564.25" y="-585.2" font-family="Microsoft YaHei" font-size="14.00" fill="white">[target_confirmed]</text>
</g>
<!-- start&#45;&gt;target_confirmed -->
<g id="edge1" class="edge">
<title>start&#45;&gt;target_confirmed</title>
<path fill="none" stroke="black" d="M618.94,-802.26C618.94,-802.26 618.94,-633.06 618.94,-633.06"/>
<polygon fill="black" stroke="black" points="622.44,-633.06 618.94,-623.06 615.44,-633.06 622.44,-633.06"/>
</g>
<!-- official_info&#45;&gt;target_confirmed -->
<g id="edge2" class="edge">
<title>official_info&#45;&gt;target_confirmed</title>
<path fill="none" stroke="black" d="M471.89,-711C490.85,-711 507.88,-711 507.88,-711 507.88,-711 507.88,-633.05 507.88,-633.05"/>
<polygon fill="black" stroke="black" points="511.38,-633.05 507.88,-623.05 504.38,-633.05 511.38,-633.05"/>
</g>
<!-- official_info&#45;&gt;target_confirmed -->
<g id="edge15" class="edge">
<title>official_info&#45;&gt;target_confirmed</title>
<path fill="none" stroke="#9e9e9e" stroke-dasharray="5,2" d="M471.84,-695C487.69,-695 501.12,-695 501.12,-695 501.12,-695 501.12,-632.88 501.12,-632.88"/>
<polygon fill="#9e9e9e" stroke="#9e9e9e" points="504.63,-632.88 501.13,-622.88 497.63,-632.88 504.63,-632.88"/>
</g>
<!-- tavern_info&#45;&gt;target_confirmed -->
<g id="edge3" class="edge">
<title>tavern_info&#45;&gt;target_confirmed</title>
<path fill="none" stroke="black" d="M580.79,-679.81C580.79,-679.81 580.79,-633.14 580.79,-633.14"/>
<polygon fill="black" stroke="black" points="584.29,-633.14 580.79,-623.14 577.29,-633.14 584.29,-633.14"/>
</g>
<!-- tavern_info&#45;&gt;target_confirmed -->
<g id="edge17" class="edge">
<title>tavern_info&#45;&gt;target_confirmed</title>
<path fill="none" stroke="#9e9e9e" stroke-dasharray="5,2" d="M547.71,-679.81C547.71,-679.81 547.71,-633.14 547.71,-633.14"/>
<polygon fill="#9e9e9e" stroke="#9e9e9e" points="551.21,-633.14 547.71,-623.14 544.21,-633.14 551.21,-633.14"/>
</g>
<!-- crime_scene&#45;&gt;target_confirmed -->
<g id="edge4" class="edge">
<title>crime_scene&#45;&gt;target_confirmed</title>
<path fill="none" stroke="black" d="M656.55,-695C641.45,-695 629.06,-695 629.06,-695 629.06,-695 629.06,-632.88 629.06,-632.88"/>
<polygon fill="black" stroke="black" points="632.56,-632.88 629.06,-622.88 625.56,-632.88 632.56,-632.88"/>
</g>
<!-- crime_scene&#45;&gt;target_confirmed -->
<g id="edge19" class="edge">
<title>crime_scene&#45;&gt;target_confirmed</title>
<path fill="none" stroke="#9e9e9e" stroke-dasharray="5,2" d="M656.61,-711C639.07,-711 624,-711 624,-711 624,-711 624,-633.05 624,-633.05"/>
<polygon fill="#9e9e9e" stroke="#9e9e9e" points="627.5,-633.05 624,-623.05 620.5,-633.05 627.5,-633.05"/>
</g>
<!-- underground_contact -->
<g id="node6" class="node">
<title>underground_contact</title>
<polygon fill="#4caf50" stroke="black" points="480.88,-499 309.62,-499 309.62,-453.5 480.88,-453.5 480.88,-499"/>
<text xml:space="preserve" text-anchor="middle" x="395.25" y="-481.7" font-family="Microsoft YaHei" font-size="14.00" fill="white">接触地下势力</text>
<text xml:space="preserve" text-anchor="middle" x="395.25" y="-462.95" font-family="Microsoft YaHei" font-size="14.00" fill="white">[underground_contact]</text>
</g>
<!-- target_confirmed&#45;&gt;underground_contact -->
<g id="edge20" class="edge">
<title>target_confirmed&#45;&gt;underground_contact</title>
<path fill="none" stroke="#ff9800" d="M494.06,-599C483.6,-599 476.25,-599 476.25,-599 476.25,-599 476.25,-510.85 476.25,-510.85"/>
<polygon fill="#ff9800" stroke="#ff9800" points="479.75,-510.85 476.25,-500.85 472.75,-510.85 479.75,-510.85"/>
<text xml:space="preserve" text-anchor="middle" x="540.25" y="-533.45" font-family="Microsoft YaHei" font-size="14.00" fill="#ff9800">追踪地下世界线索</text>
</g>
<!-- wilderness_tracking -->
<g id="node11" class="node">
<title>wilderness_tracking</title>
<polygon fill="#4caf50" stroke="black" points="908.38,-499 752.12,-499 752.12,-453.5 908.38,-453.5 908.38,-499"/>
<text xml:space="preserve" text-anchor="middle" x="830.25" y="-481.7" font-family="Microsoft YaHei" font-size="14.00" fill="white">追踪克伦可的痕迹</text>
<text xml:space="preserve" text-anchor="middle" x="830.25" y="-462.95" font-family="Microsoft YaHei" font-size="14.00" fill="white">[wilderness_tracking]</text>
</g>
<!-- target_confirmed&#45;&gt;wilderness_tracking -->
<g id="edge22" class="edge">
<title>target_confirmed&#45;&gt;wilderness_tracking</title>
<path fill="none" stroke="#ff9800" d="M634.43,-599C689.84,-599 757.88,-599 757.88,-599 757.88,-599 757.88,-510.85 757.88,-510.85"/>
<polygon fill="#ff9800" stroke="#ff9800" points="761.38,-510.85 757.88,-500.85 754.38,-510.85 761.38,-510.85"/>
<text xml:space="preserve" text-anchor="middle" x="763.38" y="-533.45" font-family="Microsoft YaHei" font-size="14.00" fill="#ff9800">沿荒野逃亡路线追踪</text>
</g>
<!-- bribe_info -->
<g id="node7" class="node">
<title>bribe_info</title>
<polygon fill="#2196f3" stroke="black" points="92.5,-376.75 0,-376.75 0,-331.25 92.5,-331.25 92.5,-376.75"/>
<text xml:space="preserve" text-anchor="middle" x="46.25" y="-359.45" font-family="Microsoft YaHei" font-size="14.00" fill="white">贿赂结果</text>
<text xml:space="preserve" text-anchor="middle" x="46.25" y="-340.7" font-family="Microsoft YaHei" font-size="14.00" fill="white">[bribe_info]</text>
</g>
<!-- underground_contact&#45;&gt;bribe_info -->
<g id="edge24" class="edge">
<title>underground_contact&#45;&gt;bribe_info</title>
<path fill="none" stroke="#ff9800" d="M309.43,-484C206.09,-484 46.25,-484 46.25,-484 46.25,-484 46.25,-388.75 46.25,-388.75"/>
<polygon fill="#ff9800" stroke="#ff9800" points="49.75,-388.75 46.25,-378.75 42.75,-388.75 49.75,-388.75"/>
<text xml:space="preserve" text-anchor="middle" x="78" y="-411.2" font-family="Microsoft YaHei" font-size="14.00" fill="#ff9800">贿赂换取情报</text>
</g>
<!-- threat_info -->
<g id="node8" class="node">
<title>threat_info</title>
<polygon fill="#2196f3" stroke="black" points="231.38,-376.75 135.12,-376.75 135.12,-331.25 231.38,-331.25 231.38,-376.75"/>
<text xml:space="preserve" text-anchor="middle" x="183.25" y="-359.45" font-family="Microsoft YaHei" font-size="14.00" fill="white">威胁结果</text>
<text xml:space="preserve" text-anchor="middle" x="183.25" y="-340.7" font-family="Microsoft YaHei" font-size="14.00" fill="white">[threat_info]</text>
</g>
<!-- underground_contact&#45;&gt;threat_info -->
<g id="edge26" class="edge">
<title>underground_contact&#45;&gt;threat_info</title>
<path fill="none" stroke="#ff9800" d="M309.33,-469C250.56,-469 183.25,-469 183.25,-469 183.25,-469 183.25,-388.51 183.25,-388.51"/>
<polygon fill="#ff9800" stroke="#ff9800" points="186.75,-388.51 183.25,-378.51 179.75,-388.51 186.75,-388.51"/>
<text xml:space="preserve" text-anchor="middle" x="219.12" y="-411.2" font-family="Microsoft YaHei" font-size="14.00" fill="#ff9800">威胁或武力施压</text>
</g>
<!-- deal_info -->
<g id="node9" class="node">
<title>deal_info</title>
<polygon fill="#2196f3" stroke="black" points="360.12,-376.75 274.38,-376.75 274.38,-331.25 360.12,-331.25 360.12,-376.75"/>
<text xml:space="preserve" text-anchor="middle" x="317.25" y="-359.45" font-family="Microsoft YaHei" font-size="14.00" fill="white">交易结果</text>
<text xml:space="preserve" text-anchor="middle" x="317.25" y="-340.7" font-family="Microsoft YaHei" font-size="14.00" fill="white">[deal_info]</text>
</g>
<!-- underground_contact&#45;&gt;deal_info -->
<g id="edge28" class="edge">
<title>underground_contact&#45;&gt;deal_info</title>
<path fill="none" stroke="#ff9800" d="M334.88,-453.26C334.88,-453.26 334.88,-388.4 334.88,-388.4"/>
<polygon fill="#ff9800" stroke="#ff9800" points="338.38,-388.4 334.88,-378.4 331.38,-388.4 338.38,-388.4"/>
<text xml:space="preserve" text-anchor="middle" x="381.38" y="-411.2" font-family="Microsoft YaHei" font-size="14.00" fill="#ff9800">答应替他们解决麻烦</text>
</g>
<!-- underground_conflict -->
<g id="node10" class="node">
<title>underground_conflict</title>
<polygon fill="#4caf50" stroke="black" points="335.5,-272.25 165,-272.25 165,-226.75 335.5,-226.75 335.5,-272.25"/>
<text xml:space="preserve" text-anchor="middle" x="250.25" y="-254.95" font-family="Microsoft YaHei" font-size="14.00" fill="white">地下据点冲突</text>
<text xml:space="preserve" text-anchor="middle" x="250.25" y="-236.2" font-family="Microsoft YaHei" font-size="14.00" fill="white">[underground_conflict]</text>
</g>
<!-- underground_contact&#45;&gt;underground_conflict -->
<g id="edge5" class="edge">
<title>underground_contact&#45;&gt;underground_conflict</title>
<path fill="none" stroke="black" d="M373.88,-453.2C373.88,-396.91 373.88,-257 373.88,-257 373.88,-257 347.29,-257 347.29,-257"/>
<polygon fill="black" stroke="black" points="347.29,-253.5 337.29,-257 347.29,-260.5 347.29,-253.5"/>
</g>
<!-- final_confrontation -->
<g id="node15" class="node">
<title>final_confrontation</title>
<polygon fill="#4caf50" stroke="black" points="715.12,-167.75 563.38,-167.75 563.38,-122.25 715.12,-122.25 715.12,-167.75"/>
<text xml:space="preserve" text-anchor="middle" x="639.25" y="-150.45" font-family="Microsoft YaHei" font-size="14.00" fill="white">面对克伦可</text>
<text xml:space="preserve" text-anchor="middle" x="639.25" y="-131.7" font-family="Microsoft YaHei" font-size="14.00" fill="white">[final_confrontation]</text>
</g>
<!-- underground_contact&#45;&gt;final_confrontation -->
<g id="edge21" class="edge">
<title>underground_contact&#45;&gt;final_confrontation</title>
<path fill="none" stroke="#9e9e9e" stroke-dasharray="5,2" d="M481.26,-484C531.24,-484 584.44,-484 584.44,-484 584.44,-484 584.44,-179.55 584.44,-179.55"/>
<polygon fill="#9e9e9e" stroke="#9e9e9e" points="587.94,-179.55 584.44,-169.55 580.94,-179.55 587.94,-179.55"/>
</g>
<!-- bribe_info&#45;&gt;underground_conflict -->
<g id="edge6" class="edge">
<title>bribe_info&#45;&gt;underground_conflict</title>
<path fill="none" stroke="black" d="M30.83,-330.79C30.83,-297.99 30.83,-242 30.83,-242 30.83,-242 153.28,-242 153.28,-242"/>
<polygon fill="black" stroke="black" points="153.28,-245.5 163.28,-242 153.28,-238.5 153.28,-245.5"/>
</g>
<!-- bribe_info&#45;&gt;underground_conflict -->
<g id="edge25" class="edge">
<title>bribe_info&#45;&gt;underground_conflict</title>
<path fill="none" stroke="#9e9e9e" stroke-dasharray="5,2" d="M61.67,-331.01C61.67,-302.33 61.67,-257 61.67,-257 61.67,-257 153,-257 153,-257"/>
<polygon fill="#9e9e9e" stroke="#9e9e9e" points="153,-260.5 163,-257 153,-253.5 153,-260.5"/>
</g>
<!-- threat_info&#45;&gt;underground_conflict -->
<g id="edge7" class="edge">
<title>threat_info&#45;&gt;underground_conflict</title>
<path fill="none" stroke="black" d="M187.12,-330.81C187.12,-330.81 187.12,-284.14 187.12,-284.14"/>
<polygon fill="black" stroke="black" points="190.63,-284.14 187.13,-274.14 183.63,-284.14 190.63,-284.14"/>
</g>
<!-- threat_info&#45;&gt;underground_conflict -->
<g id="edge27" class="edge">
<title>threat_info&#45;&gt;underground_conflict</title>
<path fill="none" stroke="#9e9e9e" stroke-dasharray="5,2" d="M209.25,-330.81C209.25,-330.81 209.25,-284.14 209.25,-284.14"/>
<polygon fill="#9e9e9e" stroke="#9e9e9e" points="212.75,-284.14 209.25,-274.14 205.75,-284.14 212.75,-284.14"/>
</g>
<!-- deal_info&#45;&gt;underground_conflict -->
<g id="edge8" class="edge">
<title>deal_info&#45;&gt;underground_conflict</title>
<path fill="none" stroke="black" d="M294.75,-330.81C294.75,-330.81 294.75,-284.14 294.75,-284.14"/>
<polygon fill="black" stroke="black" points="298.25,-284.14 294.75,-274.14 291.25,-284.14 298.25,-284.14"/>
</g>
<!-- deal_info&#45;&gt;underground_conflict -->
<g id="edge29" class="edge">
<title>deal_info&#45;&gt;underground_conflict</title>
<path fill="none" stroke="#9e9e9e" stroke-dasharray="5,2" d="M315.12,-330.81C315.12,-330.81 315.12,-284.14 315.12,-284.14"/>
<polygon fill="#9e9e9e" stroke="#9e9e9e" points="318.63,-284.14 315.13,-274.14 311.63,-284.14 318.63,-284.14"/>
</g>
<!-- underground_conflict&#45;&gt;final_confrontation -->
<g id="edge9" class="edge">
<title>underground_conflict&#45;&gt;final_confrontation</title>
<path fill="none" stroke="black" d="M335.71,-242C431.6,-242 573.91,-242 573.91,-242 573.91,-242 573.91,-179.5 573.91,-179.5"/>
<polygon fill="black" stroke="black" points="577.41,-179.5 573.91,-169.5 570.41,-179.5 577.41,-179.5"/>
</g>
<!-- successful_track -->
<g id="node12" class="node">
<title>successful_track</title>
<polygon fill="#2196f3" stroke="black" points="737,-376.75 605.5,-376.75 605.5,-331.25 737,-331.25 737,-376.75"/>
<text xml:space="preserve" text-anchor="middle" x="671.25" y="-359.45" font-family="Microsoft YaHei" font-size="14.00" fill="white">成功追踪</text>
<text xml:space="preserve" text-anchor="middle" x="671.25" y="-340.7" font-family="Microsoft YaHei" font-size="14.00" fill="white">[successful_track]</text>
</g>
<!-- wilderness_tracking&#45;&gt;successful_track -->
<g id="edge30" class="edge">
<title>wilderness_tracking&#45;&gt;successful_track</title>
<path fill="none" stroke="#ff9800" d="M761.5,-453.26C761.5,-417.84 761.5,-354 761.5,-354 761.5,-354 748.83,-354 748.83,-354"/>
<polygon fill="#ff9800" stroke="#ff9800" points="748.83,-350.5 738.83,-354 748.83,-357.5 748.83,-350.5"/>
<text xml:space="preserve" text-anchor="middle" x="726.75" y="-411.2" font-family="Microsoft YaHei" font-size="14.00" fill="#ff9800">成功追踪</text>
</g>
<!-- failed_track -->
<g id="node13" class="node">
<title>failed_track</title>
<polygon fill="#2196f3" stroke="black" points="880.25,-376.75 780.25,-376.75 780.25,-331.25 880.25,-331.25 880.25,-376.75"/>
<text xml:space="preserve" text-anchor="middle" x="830.25" y="-359.45" font-family="Microsoft YaHei" font-size="14.00" fill="white">追踪失败</text>
<text xml:space="preserve" text-anchor="middle" x="830.25" y="-340.7" font-family="Microsoft YaHei" font-size="14.00" fill="white">[failed_track]</text>
</g>
<!-- wilderness_tracking&#45;&gt;failed_track -->
<g id="edge32" class="edge">
<title>wilderness_tracking&#45;&gt;failed_track</title>
<path fill="none" stroke="#ff9800" d="M830.25,-453.26C830.25,-453.26 830.25,-388.4 830.25,-388.4"/>
<polygon fill="#ff9800" stroke="#ff9800" points="833.75,-388.4 830.25,-378.4 826.75,-388.4 833.75,-388.4"/>
<text xml:space="preserve" text-anchor="middle" x="858.75" y="-411.2" font-family="Microsoft YaHei" font-size="14.00" fill="#ff9800">追踪失败</text>
</g>
<!-- third_party_encounter -->
<g id="node14" class="node">
<title>third_party_encounter</title>
<polygon fill="#4caf50" stroke="black" points="840.62,-272.25 667.88,-272.25 667.88,-226.75 840.62,-226.75 840.62,-272.25"/>
<text xml:space="preserve" text-anchor="middle" x="754.25" y="-254.95" font-family="Microsoft YaHei" font-size="14.00" fill="white">遭遇其他追捕者</text>
<text xml:space="preserve" text-anchor="middle" x="754.25" y="-236.2" font-family="Microsoft YaHei" font-size="14.00" fill="white">[third_party_encounter]</text>
</g>
<!-- wilderness_tracking&#45;&gt;third_party_encounter -->
<g id="edge10" class="edge">
<title>wilderness_tracking&#45;&gt;third_party_encounter</title>
<path fill="none" stroke="black" d="M770.88,-453.26C770.88,-453.26 770.88,-284.06 770.88,-284.06"/>
<polygon fill="black" stroke="black" points="774.38,-284.06 770.88,-274.06 767.38,-284.06 774.38,-284.06"/>
</g>
<!-- wilderness_tracking&#45;&gt;final_confrontation -->
<g id="edge23" class="edge">
<title>wilderness_tracking&#45;&gt;final_confrontation</title>
<path fill="none" stroke="#9e9e9e" stroke-dasharray="5,2" d="M751.9,-469C683.46,-469 594.97,-469 594.97,-469 594.97,-469 594.97,-179.56 594.97,-179.56"/>
<polygon fill="#9e9e9e" stroke="#9e9e9e" points="598.47,-179.56 594.97,-169.56 591.47,-179.56 598.47,-179.56"/>
</g>
<!-- successful_track&#45;&gt;third_party_encounter -->
<g id="edge11" class="edge">
<title>successful_track&#45;&gt;third_party_encounter</title>
<path fill="none" stroke="black" d="M690.92,-330.81C690.92,-330.81 690.92,-284.14 690.92,-284.14"/>
<polygon fill="black" stroke="black" points="694.42,-284.14 690.92,-274.14 687.42,-284.14 694.42,-284.14"/>
</g>
<!-- successful_track&#45;&gt;third_party_encounter -->
<g id="edge31" class="edge">
<title>successful_track&#45;&gt;third_party_encounter</title>
<path fill="none" stroke="#9e9e9e" stroke-dasharray="5,2" d="M713.96,-330.81C713.96,-330.81 713.96,-284.14 713.96,-284.14"/>
<polygon fill="#9e9e9e" stroke="#9e9e9e" points="717.46,-284.14 713.96,-274.14 710.46,-284.14 717.46,-284.14"/>
</g>
<!-- failed_track&#45;&gt;third_party_encounter -->
<g id="edge12" class="edge">
<title>failed_track&#45;&gt;third_party_encounter</title>
<path fill="none" stroke="black" d="M800.38,-330.81C800.38,-330.81 800.38,-284.14 800.38,-284.14"/>
<polygon fill="black" stroke="black" points="803.88,-284.14 800.38,-274.14 796.88,-284.14 803.88,-284.14"/>
</g>
<!-- failed_track&#45;&gt;third_party_encounter -->
<g id="edge33" class="edge">
<title>failed_track&#45;&gt;third_party_encounter</title>
<path fill="none" stroke="#9e9e9e" stroke-dasharray="5,2" d="M820.5,-330.81C820.5,-330.81 820.5,-284.14 820.5,-284.14"/>
<polygon fill="#9e9e9e" stroke="#9e9e9e" points="824,-284.14 820.5,-274.14 817,-284.14 824,-284.14"/>
</g>
<!-- third_party_encounter&#45;&gt;final_confrontation -->
<g id="edge13" class="edge">
<title>third_party_encounter&#45;&gt;final_confrontation</title>
<path fill="none" stroke="black" d="M691.5,-226.31C691.5,-226.31 691.5,-179.64 691.5,-179.64"/>
<polygon fill="black" stroke="black" points="695,-179.64 691.5,-169.64 688,-179.64 695,-179.64"/>
</g>
<!-- combat_ending -->
<g id="node16" class="node">
<title>combat_ending</title>
<polygon fill="#4caf50" stroke="black" points="516.88,-45.5 387.62,-45.5 387.62,0 516.88,0 516.88,-45.5"/>
<text xml:space="preserve" text-anchor="middle" x="452.25" y="-28.2" font-family="Microsoft YaHei" font-size="14.00" fill="white">正义执行</text>
<text xml:space="preserve" text-anchor="middle" x="452.25" y="-9.45" font-family="Microsoft YaHei" font-size="14.00" fill="white">[combat_ending]</text>
</g>
<!-- final_confrontation&#45;&gt;combat_ending -->
<g id="edge34" class="edge">
<title>final_confrontation&#45;&gt;combat_ending</title>
<path fill="none" stroke="#ff9800" d="M563.07,-145C533.06,-145 505.62,-145 505.62,-145 505.62,-145 505.62,-57.26 505.62,-57.26"/>
<polygon fill="#ff9800" stroke="#ff9800" points="509.13,-57.26 505.63,-47.26 502.13,-57.26 509.13,-57.26"/>
<text xml:space="preserve" text-anchor="middle" x="480.75" y="-79.95" font-family="Microsoft YaHei" font-size="14.00" fill="#ff9800">直接战斗</text>
</g>
<!-- negotiation_ending -->
<g id="node17" class="node">
<title>negotiation_ending</title>
<polygon fill="#4caf50" stroke="black" points="718.12,-45.5 560.38,-45.5 560.38,0 718.12,0 718.12,-45.5"/>
<text xml:space="preserve" text-anchor="middle" x="639.25" y="-28.2" font-family="Microsoft YaHei" font-size="14.00" fill="white">更大的敌人</text>
<text xml:space="preserve" text-anchor="middle" x="639.25" y="-9.45" font-family="Microsoft YaHei" font-size="14.00" fill="white">[negotiation_ending]</text>
</g>
<!-- final_confrontation&#45;&gt;negotiation_ending -->
<g id="edge35" class="edge">
<title>final_confrontation&#45;&gt;negotiation_ending</title>
<path fill="none" stroke="#ff9800" d="M639.25,-122.01C639.25,-122.01 639.25,-57.15 639.25,-57.15"/>
<polygon fill="#ff9800" stroke="#ff9800" points="642.75,-57.15 639.25,-47.15 635.75,-57.15 642.75,-57.15"/>
<text xml:space="preserve" text-anchor="middle" x="667.75" y="-79.95" font-family="Microsoft YaHei" font-size="14.00" fill="#ff9800">尝试谈判</text>
</g>
<!-- death_ending -->
<g id="node18" class="node">
<title>death_ending</title>
<polygon fill="#4caf50" stroke="black" points="878.88,-45.5 761.62,-45.5 761.62,0 878.88,0 878.88,-45.5"/>
<text xml:space="preserve" text-anchor="middle" x="820.25" y="-28.2" font-family="Microsoft YaHei" font-size="14.00" fill="white">真相被掩埋</text>
<text xml:space="preserve" text-anchor="middle" x="820.25" y="-9.45" font-family="Microsoft YaHei" font-size="14.00" fill="white">[death_ending]</text>
</g>
<!-- final_confrontation&#45;&gt;death_ending -->
<g id="edge36" class="edge">
<title>final_confrontation&#45;&gt;death_ending</title>
<path fill="none" stroke="#ff9800" d="M715.45,-145C757.43,-145 801.12,-145 801.12,-145 801.12,-145 801.12,-57.26 801.12,-57.26"/>
<polygon fill="#ff9800" stroke="#ff9800" points="804.63,-57.26 801.13,-47.26 797.63,-57.26 804.63,-57.26"/>
<text xml:space="preserve" text-anchor="middle" x="870.12" y="-79.95" font-family="Microsoft YaHei" font-size="14.00" fill="#ff9800">发现克伦可已死</text>
</g>
</g>
</svg>
