<?xml version="1.0" encoding="UTF-8" standalone="no"?>
<!DOCTYPE svg PUBLIC "-//W3C//DTD SVG 1.1//EN"
 "http://www.w3.org/Graphics/SVG/1.1/DTD/svg11.dtd">
<!-- Generated by graphviz version 14.1.1 (20251213.1925)
 -->
<!-- Title: Story Pages: 1 -->
<svg width="355pt" height="489pt"
 viewBox="0.00 0.00 355.00 489.00" xmlns="http://www.w3.org/2000/svg" xmlns:xlink="http://www.w3.org/1999/xlink">
<g id="graph0" class="graph" transform="scale(1 1) rotate(0) translate(4 485.25)">
<title>Story</title>
<polygon fill="white" stroke="none" points="-4,4 -4,-485.25 350.88,-485.25 350.88,4 -4,4"/>
<!-- start -->
<g id="node1" class="node">
<title>start</title>
<polygon fill="#4caf50" stroke="black" points="220.88,-481.25 147.88,-481.25 147.88,-435.75 220.88,-435.75 220.88,-481.25"/>
<text xml:space="preserve" text-anchor="middle" x="184.38" y="-463.95" font-family="Microsoft YaHei" font-size="14.00" fill="white">矿坑入口</text>
<text xml:space="preserve" text-anchor="middle" x="184.38" y="-445.2" font-family="Microsoft YaHei" font-size="14.00" fill="white">[start]</text>
</g>
<!-- left_path -->
<g id="node2" class="node">
<title>left_path</title>
<polygon fill="#2196f3" stroke="black" points="146.12,-359 62.62,-359 62.62,-313.5 146.12,-313.5 146.12,-359"/>
<text xml:space="preserve" text-anchor="middle" x="104.38" y="-341.7" font-family="Microsoft YaHei" font-size="14.00" fill="white">主通道</text>
<text xml:space="preserve" text-anchor="middle" x="104.38" y="-322.95" font-family="Microsoft YaHei" font-size="14.00" fill="white">[left_path]</text>
</g>
<!-- start&#45;&gt;left_path -->
<g id="edge6" class="edge">
<title>start&#45;&gt;left_path</title>
<path fill="none" stroke="#ff9800" d="M166.69,-435.33C166.69,-401.87 166.69,-344 166.69,-344 166.69,-344 157.8,-344 157.8,-344"/>
<polygon fill="#ff9800" stroke="#ff9800" points="157.8,-340.5 147.8,-344 157.8,-347.5 157.8,-340.5"/>
<text xml:space="preserve" text-anchor="middle" x="160.25" y="-393.45" font-family="Microsoft YaHei" font-size="14.00" fill="#ff9800">走左边的主通道</text>
</g>
<!-- right_path -->
<g id="node3" class="node">
<title>right_path</title>
<polygon fill="#2196f3" stroke="black" points="308.62,-359 216.12,-359 216.12,-313.5 308.62,-313.5 308.62,-359"/>
<text xml:space="preserve" text-anchor="middle" x="262.38" y="-341.7" font-family="Microsoft YaHei" font-size="14.00" fill="white">小径</text>
<text xml:space="preserve" text-anchor="middle" x="262.38" y="-322.95" font-family="Microsoft YaHei" font-size="14.00" fill="white">[right_path]</text>
</g>
<!-- start&#45;&gt;right_path -->
<g id="edge7" class="edge">
<title>start&#45;&gt;right_path</title>
<path fill="none" stroke="#ff9800" d="M200.81,-435.35C200.81,-398.1 200.81,-329 200.81,-329 200.81,-329 204.2,-329 204.2,-329"/>
<polygon fill="#ff9800" stroke="#ff9800" points="204.2,-332.5 214.2,-329 204.2,-325.5 204.2,-332.5"/>
<text xml:space="preserve" text-anchor="middle" x="304.12" y="-393.45" font-family="Microsoft YaHei" font-size="14.00" fill="#ff9800">走右边的小径</text>
</g>
<!-- spider_encounter -->
<g id="node4" class="node">
<title>spider_encounter</title>
<polygon fill="#4caf50" stroke="black" points="142.75,-254.5 0,-254.5 0,-209 142.75,-209 142.75,-254.5"/>
<text xml:space="preserve" text-anchor="middle" x="71.38" y="-237.2" font-family="Microsoft YaHei" font-size="14.00" fill="white">蜘蛛巢穴</text>
<text xml:space="preserve" text-anchor="middle" x="71.38" y="-218.45" font-family="Microsoft YaHei" font-size="14.00" fill="white">[spider_encounter]</text>
</g>
<!-- left_path&#45;&gt;spider_encounter -->
<g id="edge1" class="edge">
<title>left_path&#45;&gt;spider_encounter</title>
<path fill="none" stroke="#333333" d="M102.69,-313.06C102.69,-313.06 102.69,-266.39 102.69,-266.39"/>
<polygon fill="#333333" stroke="#333333" points="106.19,-266.39 102.69,-256.39 99.19,-266.39 106.19,-266.39"/>
</g>
<!-- skeleton_encounter -->
<g id="node5" class="node">
<title>skeleton_encounter</title>
<polygon fill="#4caf50" stroke="black" points="343.25,-254.5 185.5,-254.5 185.5,-209 343.25,-209 343.25,-254.5"/>
<text xml:space="preserve" text-anchor="middle" x="264.38" y="-237.2" font-family="Microsoft YaHei" font-size="14.00" fill="white">骷髅矿工</text>
<text xml:space="preserve" text-anchor="middle" x="264.38" y="-218.45" font-family="Microsoft YaHei" font-size="14.00" fill="white">[skeleton_encounter]</text>
</g>
<!-- right_path&#45;&gt;skeleton_encounter -->
<g id="edge2" class="edge">
<title>right_path&#45;&gt;skeleton_encounter</title>
<path fill="none" stroke="#333333" d="M262.38,-313.06C262.38,-313.06 262.38,-266.39 262.38,-266.39"/>
<polygon fill="#333333" stroke="#333333" points="265.88,-266.39 262.38,-256.39 258.88,-266.39 265.88,-266.39"/>
</g>
<!-- treasure_room -->
<g id="node6" class="node">
<title>treasure_room</title>
<polygon fill="#4caf50" stroke="black" points="227.88,-150 106.88,-150 106.88,-104.5 227.88,-104.5 227.88,-150"/>
<text xml:space="preserve" text-anchor="middle" x="167.38" y="-132.7" font-family="Microsoft YaHei" font-size="14.00" fill="white">宝藏室</text>
<text xml:space="preserve" text-anchor="middle" x="167.38" y="-113.95" font-family="Microsoft YaHei" font-size="14.00" fill="white">[treasure_room]</text>
</g>
<!-- spider_encounter&#45;&gt;treasure_room -->
<g id="edge3" class="edge">
<title>spider_encounter&#45;&gt;treasure_room</title>
<path fill="none" stroke="#333333" d="M124.81,-208.56C124.81,-208.56 124.81,-161.89 124.81,-161.89"/>
<polygon fill="#333333" stroke="#333333" points="128.31,-161.89 124.81,-151.89 121.31,-161.89 128.31,-161.89"/>
</g>
<!-- skeleton_encounter&#45;&gt;treasure_room -->
<g id="edge4" class="edge">
<title>skeleton_encounter&#45;&gt;treasure_room</title>
<path fill="none" stroke="#333333" d="M206.69,-208.56C206.69,-208.56 206.69,-161.89 206.69,-161.89"/>
<polygon fill="#333333" stroke="#333333" points="210.19,-161.89 206.69,-151.89 203.19,-161.89 210.19,-161.89"/>
</g>
<!-- end -->
<g id="node7" class="node">
<title>end</title>
<polygon fill="#4caf50" stroke="black" points="203.88,-45.5 130.88,-45.5 130.88,0 203.88,0 203.88,-45.5"/>
<text xml:space="preserve" text-anchor="middle" x="167.38" y="-28.2" font-family="Microsoft YaHei" font-size="14.00" fill="white">冒险结束</text>
<text xml:space="preserve" text-anchor="middle" x="167.38" y="-9.45" font-family="Microsoft YaHei" font-size="14.00" fill="white">[end]</text>
</g>
<!-- treasure_room&#45;&gt;end -->
<g id="edge5" class="edge">
<title>treasure_room&#45;&gt;end</title>
<path fill="none" stroke="#333333" d="M167.38,-104.06C167.38,-104.06 167.38,-57.39 167.38,-57.39"/>
<polygon fill="#333333" stroke="#333333" points="170.88,-57.39 167.38,-47.39 163.88,-57.39 170.88,-57.39"/>
</g>
</g>
</svg>
