<?xml version="1.0" encoding="UTF-8" standalone="no"?>
<!DOCTYPE svg PUBLIC "-//W3C//DTD SVG 1.1//EN"
 "http://www.w3.org/Graphics/SVG/1.1/DTD/svg11.dtd">
<!-- Generated by graphviz version 14.1.1 (20251213.1925)
 -->
<!-- Title: Story Pages: 1 -->
<svg width="91pt" height="261pt"
 viewBox="0.00 0.00 91.00 261.00" xmlns="http://www.w3.org/2000/svg" xmlns:xlink="http://www.w3.org/1999/xlink">
<g id="graph0" class="graph" transform="scale(1 1) rotate(0) translate(4 256.5)">
<title>Story</title>
<polygon fill="white" stroke="none" points="-4,4 -4,-256.5 86.75,-256.5 86.75,4 -4,4"/>
<!-- node_01 -->
<g id="node1" class="node">
<title>node_01</title>
<polygon fill="#4caf50" stroke="black" points="82.75,-252.5 0,-252.5 0,-207 82.75,-207 82.75,-252.5"/>
<text xml:space="preserve" text-anchor="middle" x="41.38" y="-235.2" font-family="Microsoft YaHei" font-size="14.00" fill="white">出生</text>
<text xml:space="preserve" text-anchor="middle" x="41.38" y="-216.45" font-family="Microsoft YaHei" font-size="14.00" fill="white">[node_01]</text>
</g>
<!-- node_02 -->
<g id="node2" class="node">
<title>node_02</title>
<polygon fill="#4caf50" stroke="black" points="82.75,-149 0,-149 0,-103.5 82.75,-103.5 82.75,-149"/>
<text xml:space="preserve" text-anchor="middle" x="41.38" y="-131.7" font-family="Microsoft YaHei" font-size="14.00" fill="white">长大</text>
<text xml:space="preserve" text-anchor="middle" x="41.38" y="-112.95" font-family="Microsoft YaHei" font-size="14.00" fill="white">[node_02]</text>
</g>
<!-- node_01&#45;&gt;node_02 -->
<g id="edge1" class="edge">
<title>node_01&#45;&gt;node_02</title>
<path fill="none" stroke="#333333" d="M41.38,-206.52C41.38,-206.52 41.38,-160.91 41.38,-160.91"/>
<polygon fill="#333333" stroke="#333333" points="44.88,-160.91 41.38,-150.91 37.88,-160.91 44.88,-160.91"/>
</g>
<!-- node_03 -->
<g id="node3" class="node">
<title>node_03</title>
<polygon fill="#4caf50" stroke="black" points="82.75,-45.5 0,-45.5 0,0 82.75,0 82.75,-45.5"/>
<text xml:space="preserve" text-anchor="middle" x="41.38" y="-28.2" font-family="Microsoft YaHei" font-size="14.00" fill="white">死亡</text>
<text xml:space="preserve" text-anchor="middle" x="41.38" y="-9.45" font-family="Microsoft YaHei" font-size="14.00" fill="white">[node_03]</text>
</g>
<!-- node_02&#45;&gt;node_03 -->
<g id="edge2" class="edge">
<title>node_02&#45;&gt;node_03</title>
<path fill="none" stroke="#333333" d="M41.38,-103.02C41.38,-103.02 41.38,-57.41 41.38,-57.41"/>
<polygon fill="#333333" stroke="#333333" points="44.88,-57.41 41.38,-47.41 37.88,-57.41 44.88,-57.41"/>
</g>
</g>
</svg>
