<?xml version="1.0" encoding="UTF-8" standalone="no"?>
<!DOCTYPE svg PUBLIC "-//W3C//DTD SVG 1.1//EN"
 "http://www.w3.org/Graphics/SVG/1.1/DTD/svg11.dtd">
<!-- Generated by graphviz version 14.1.1 (20251213.1925)
 -->
<!-- Title: Story Pages: 1 -->
<svg width="144pt" height="489pt"
 viewBox="0.00 0.00 144.00 489.00" xmlns="http://www.w3.org/2000/svg" xmlns:xlink="http://www.w3.org/1999/xlink">
<g id="graph0" class="graph" transform="scale(1 1) rotate(0) translate(4 485.25)">
<title>Story</title>
<polygon fill="white" stroke="none" points="-4,4 -4,-485.25 139.75,-485.25 139.75,4 -4,4"/>
<!-- node_01 -->
<g id="node1" class="node">
<title>node_01</title>
<polygon fill="#4caf50" stroke="black" points="135.75,-481.25 53,-481.25 53,-435.75 135.75,-435.75 135.75,-481.25"/>
<text xml:space="preserve" text-anchor="middle" x="94.38" y="-463.95" font-family="Microsoft YaHei" font-size="14.00" fill="white">出生</text>
<text xml:space="preserve" text-anchor="middle" x="94.38" y="-445.2" font-family="Microsoft YaHei" font-size="14.00" fill="white">[node_01]</text>
</g>
<!-- node_02 -->
<g id="node2" class="node">
<title>node_02</title>
<polygon fill="#4caf50" stroke="black" points="135.75,-376.75 53,-376.75 53,-331.25 135.75,-331.25 135.75,-376.75"/>
<text xml:space="preserve" text-anchor="middle" x="94.38" y="-359.45" font-family="Microsoft YaHei" font-size="14.00" fill="white">长大</text>
<text xml:space="preserve" text-anchor="middle" x="94.38" y="-340.7" font-family="Microsoft YaHei" font-size="14.00" fill="white">[node_02]</text>
</g>
<!-- node_01&#45;&gt;node_02 -->
<g id="edge1" class="edge">
<title>node_01&#45;&gt;node_02</title>
<path fill="none" stroke="#333333" d="M94.38,-435.31C94.38,-435.31 94.38,-388.64 94.38,-388.64"/>
<polygon fill="#333333" stroke="#333333" points="97.88,-388.64 94.38,-378.64 90.88,-388.64 97.88,-388.64"/>
</g>
<!-- node_03 -->
<g id="node3" class="node">
<title>node_03</title>
<polygon fill="#2196f3" stroke="black" points="82.75,-254.5 0,-254.5 0,-209 82.75,-209 82.75,-254.5"/>
<text xml:space="preserve" text-anchor="middle" x="41.38" y="-237.2" font-family="Microsoft YaHei" font-size="14.00" fill="white">结婚</text>
<text xml:space="preserve" text-anchor="middle" x="41.38" y="-218.45" font-family="Microsoft YaHei" font-size="14.00" fill="white">[node_03]</text>
</g>
<!-- node_02&#45;&gt;node_03 -->
<g id="edge5" class="edge">
<title>node_02&#45;&gt;node_03</title>
<path fill="none" stroke="#ff9800" d="M67.88,-331.01C67.88,-331.01 67.88,-266.15 67.88,-266.15"/>
<polygon fill="#ff9800" stroke="#ff9800" points="71.38,-266.15 67.88,-256.15 64.38,-266.15 71.38,-266.15"/>
<text xml:space="preserve" text-anchor="middle" x="80.75" y="-288.95" font-family="Microsoft YaHei" font-size="14.00" fill="#ff9800">谈恋爱</text>
</g>
<!-- node_05 -->
<g id="node5" class="node">
<title>node_05</title>
<polygon fill="#4caf50" stroke="black" points="135.75,-45.5 53,-45.5 53,0 135.75,0 135.75,-45.5"/>
<text xml:space="preserve" text-anchor="middle" x="94.38" y="-28.2" font-family="Microsoft YaHei" font-size="14.00" fill="white">死亡</text>
<text xml:space="preserve" text-anchor="middle" x="94.38" y="-9.45" font-family="Microsoft YaHei" font-size="14.00" fill="white">[node_05]</text>
</g>
<!-- node_02&#45;&gt;node_05 -->
<g id="edge2" class="edge">
<title>node_02&#45;&gt;node_05</title>
<path fill="none" stroke="#333333" d="M109.25,-330.97C109.25,-330.97 109.25,-57.14 109.25,-57.14"/>
<polygon fill="#333333" stroke="#333333" points="112.75,-57.14 109.25,-47.14 105.75,-57.14 112.75,-57.14"/>
</g>
<!-- node_04 -->
<g id="node4" class="node">
<title>node_04</title>
<polygon fill="#2196f3" stroke="black" points="82.75,-150 0,-150 0,-104.5 82.75,-104.5 82.75,-150"/>
<text xml:space="preserve" text-anchor="middle" x="41.38" y="-132.7" font-family="Microsoft YaHei" font-size="14.00" fill="white">离婚</text>
<text xml:space="preserve" text-anchor="middle" x="41.38" y="-113.95" font-family="Microsoft YaHei" font-size="14.00" fill="white">[node_04]</text>
</g>
<!-- node_03&#45;&gt;node_04 -->
<g id="edge3" class="edge">
<title>node_03&#45;&gt;node_04</title>
<path fill="none" stroke="#333333" d="M41.38,-208.56C41.38,-208.56 41.38,-161.89 41.38,-161.89"/>
<polygon fill="#333333" stroke="#333333" points="44.88,-161.89 41.38,-151.89 37.88,-161.89 44.88,-161.89"/>
</g>
<!-- node_04&#45;&gt;node_05 -->
<g id="edge4" class="edge">
<title>node_04&#45;&gt;node_05</title>
<path fill="none" stroke="#333333" d="M67.88,-104.06C67.88,-104.06 67.88,-57.39 67.88,-57.39"/>
<polygon fill="#333333" stroke="#333333" points="71.38,-57.39 67.88,-47.39 64.38,-57.39 71.38,-57.39"/>
</g>
</g>
</svg>
