<?xml version="1.0" encoding="UTF-8" standalone="no"?>
<!DOCTYPE svg PUBLIC "-//W3C//DTD SVG 1.1//EN"
 "http://www.w3.org/Graphics/SVG/1.1/DTD/svg11.dtd">
<!-- Generated by graphviz version 14.1.1 (20251213.1925)
 -->
<!-- Title: Story Pages: 1 -->
<svg width="80pt" height="337pt"
 viewBox="0.00 0.00 80.00 337.00" xmlns="http://www.w3.org/2000/svg" xmlns:xlink="http://www.w3.org/1999/xlink">
<g id="graph0" class="graph" transform="scale(1 1) rotate(0) translate(4 333)">
<title>Story</title>
<polygon fill="white" stroke="none" points="-4,4 -4,-333 75.5,-333 75.5,4 -4,4"/>
<!-- node_01 -->
<g id="node1" class="node">
<title>node_01</title>
<polygon fill="#4caf50" stroke="black" points="71.5,-329 0,-329 0,-290.25 71.5,-290.25 71.5,-329"/>
<text xml:space="preserve" text-anchor="middle" x="35.75" y="-311.7" font-family="Times New Roman,serif" font-size="14.00" fill="white">出生</text>
<text xml:space="preserve" text-anchor="middle" x="35.75" y="-297.45" font-family="Times New Roman,serif" font-size="14.00" fill="white">[node_01]</text>
</g>
<!-- node_02 -->
<g id="node2" class="node">
<title>node_02</title>
<polygon fill="#4caf50" stroke="black" points="71.5,-232.25 0,-232.25 0,-193.5 71.5,-193.5 71.5,-232.25"/>
<text xml:space="preserve" text-anchor="middle" x="35.75" y="-214.95" font-family="Times New Roman,serif" font-size="14.00" fill="white">长大</text>
<text xml:space="preserve" text-anchor="middle" x="35.75" y="-200.7" font-family="Times New Roman,serif" font-size="14.00" fill="white">[node_02]</text>
</g>
<!-- node_01&#45;&gt;node_02 -->
<g id="edge1" class="edge">
<title>node_01&#45;&gt;node_02</title>
<path fill="none" stroke="black" d="M35.75,-290.05C35.75,-290.05 35.75,-243.94 35.75,-243.94"/>
<polygon fill="black" stroke="black" points="39.25,-243.94 35.75,-233.94 32.25,-243.94 39.25,-243.94"/>
</g>
<!-- node_03 -->
<g id="node3" class="node">
<title>node_03</title>
<polygon fill="#4caf50" stroke="black" points="71.5,-135.5 0,-135.5 0,-96.75 71.5,-96.75 71.5,-135.5"/>
<text xml:space="preserve" text-anchor="middle" x="35.75" y="-118.2" font-family="Times New Roman,serif" font-size="14.00" fill="white">战斗</text>
<text xml:space="preserve" text-anchor="middle" x="35.75" y="-103.95" font-family="Times New Roman,serif" font-size="14.00" fill="white">[node_03]</text>
</g>
<!-- node_02&#45;&gt;node_03 -->
<g id="edge2" class="edge">
<title>node_02&#45;&gt;node_03</title>
<path fill="none" stroke="black" d="M35.75,-193.3C35.75,-193.3 35.75,-147.19 35.75,-147.19"/>
<polygon fill="black" stroke="black" points="39.25,-147.19 35.75,-137.19 32.25,-147.19 39.25,-147.19"/>
</g>
<!-- node_04 -->
<g id="node4" class="node">
<title>node_04</title>
<polygon fill="#4caf50" stroke="black" points="71.5,-38.75 0,-38.75 0,0 71.5,0 71.5,-38.75"/>
<text xml:space="preserve" text-anchor="middle" x="35.75" y="-21.45" font-family="Times New Roman,serif" font-size="14.00" fill="white">死亡</text>
<text xml:space="preserve" text-anchor="middle" x="35.75" y="-7.2" font-family="Times New Roman,serif" font-size="14.00" fill="white">[node_04]</text>
</g>
<!-- node_03&#45;&gt;node_04 -->
<g id="edge3" class="edge">
<title>node_03&#45;&gt;node_04</title>
<path fill="none" stroke="black" d="M35.75,-96.55C35.75,-96.55 35.75,-50.44 35.75,-50.44"/>
<polygon fill="black" stroke="black" points="39.25,-50.44 35.75,-40.44 32.25,-50.44 39.25,-50.44"/>
</g>
</g>
</svg>
