<?xml version="1.0" encoding="UTF-8" standalone="no"?>
<!DOCTYPE svg PUBLIC "-//W3C//DTD SVG 1.1//EN"
 "http://www.w3.org/Graphics/SVG/1.1/DTD/svg11.dtd">
<!-- Generated by graphviz version 14.1.1 (20251213.1925)
 -->
<!-- Title: Story Pages: 1 -->
<svg width="80pt" height="144pt"
 viewBox="0.00 0.00 80.00 144.00" xmlns="http://www.w3.org/2000/svg" xmlns:xlink="http://www.w3.org/1999/xlink">
<g id="graph0" class="graph" transform="scale(1 1) rotate(0) translate(4 139.5)">
<title>Story</title>
<polygon fill="white" stroke="none" points="-4,4 -4,-139.5 75.5,-139.5 75.5,4 -4,4"/>
<!-- node_01 -->
<g id="node1" class="node">
<title>node_01</title>
<polygon fill="#4caf50" stroke="black" points="71.5,-135.5 0,-135.5 0,-96.75 71.5,-96.75 71.5,-135.5"/>
<text xml:space="preserve" text-anchor="middle" x="35.75" y="-118.2" font-family="Times New Roman,serif" font-size="14.00" fill="white">出生</text>
<text xml:space="preserve" text-anchor="middle" x="35.75" y="-103.95" font-family="Times New Roman,serif" font-size="14.00" fill="white">[node_01]</text>
</g>
<!-- node_02 -->
<g id="node2" class="node">
<title>node_02</title>
<polygon fill="#4caf50" stroke="black" points="71.5,-38.75 0,-38.75 0,0 71.5,0 71.5,-38.75"/>
<text xml:space="preserve" text-anchor="middle" x="35.75" y="-21.45" font-family="Times New Roman,serif" font-size="14.00" fill="white">死亡</text>
<text xml:space="preserve" text-anchor="middle" x="35.75" y="-7.2" font-family="Times New Roman,serif" font-size="14.00" fill="white">[node_02]</text>
</g>
<!-- node_01&#45;&gt;node_02 -->
<g id="edge1" class="edge">
<title>node_01&#45;&gt;node_02</title>
<path fill="none" stroke="black" d="M35.75,-96.55C35.75,-96.55 35.75,-50.44 35.75,-50.44"/>
<polygon fill="black" stroke="black" points="39.25,-50.44 35.75,-40.44 32.25,-50.44 39.25,-50.44"/>
</g>
</g>
</svg>
