<?xml version="1.0" encoding="UTF-8" standalone="no"?>
<!DOCTYPE svg PUBLIC "-//W3C//DTD SVG 1.1//EN"
 "http://www.w3.org/Graphics/SVG/1.1/DTD/svg11.dtd">
<!-- Generated by graphviz version 14.1.1 (20251213.1925)
 -->
<!-- Title: Story Pages: 1 -->
<svg width="245pt" height="353pt"
 viewBox="0.00 0.00 245.00 353.00" xmlns="http://www.w3.org/2000/svg" xmlns:xlink="http://www.w3.org/1999/xlink">
<g id="graph0" class="graph" transform="scale(1 1) rotate(0) translate(4 349.25)">
<title>Story</title>
<polygon fill="white" stroke="none" points="-4,4 -4,-349.25 240.5,-349.25 240.5,4 -4,4"/>
<!-- node_01 -->
<g id="node1" class="node">
<title>node_01</title>
<polygon fill="#4caf50" stroke="black" points="121.5,-345.25 50,-345.25 50,-306.5 121.5,-306.5 121.5,-345.25"/>
<text xml:space="preserve" text-anchor="middle" x="85.75" y="-327.95" font-family="Times New Roman,serif" font-size="14.00" fill="white">出生</text>
<text xml:space="preserve" text-anchor="middle" x="85.75" y="-313.7" font-family="Times New Roman,serif" font-size="14.00" fill="white">[node_01]</text>
</g>
<!-- node_02 -->
<g id="node2" class="node">
<title>node_02</title>
<polygon fill="#4caf50" stroke="black" points="121.5,-247.5 50,-247.5 50,-208.75 121.5,-208.75 121.5,-247.5"/>
<text xml:space="preserve" text-anchor="middle" x="85.75" y="-230.2" font-family="Times New Roman,serif" font-size="14.00" fill="white">长大</text>
<text xml:space="preserve" text-anchor="middle" x="85.75" y="-215.95" font-family="Times New Roman,serif" font-size="14.00" fill="white">[node_02]</text>
</g>
<!-- node_01&#45;&gt;node_02 -->
<g id="edge1" class="edge">
<title>node_01&#45;&gt;node_02</title>
<path fill="none" stroke="black" d="M85.75,-306.09C85.75,-306.09 85.75,-259.39 85.75,-259.39"/>
<polygon fill="black" stroke="black" points="89.25,-259.39 85.75,-249.39 82.25,-259.39 89.25,-259.39"/>
</g>
<!-- node_03 -->
<g id="node3" class="node">
<title>node_03</title>
<polygon fill="#2196f3" stroke="black" points="71.5,-136.5 0,-136.5 0,-97.75 71.5,-97.75 71.5,-136.5"/>
<text xml:space="preserve" text-anchor="middle" x="35.75" y="-119.2" font-family="Times New Roman,serif" font-size="14.00" fill="white">结婚</text>
<text xml:space="preserve" text-anchor="middle" x="35.75" y="-104.95" font-family="Times New Roman,serif" font-size="14.00" fill="white">[node_03]</text>
</g>
<!-- node_02&#45;&gt;node_03 -->
<g id="edge3" class="edge">
<title>node_02&#45;&gt;node_03</title>
<path fill="none" stroke="#ff9800" d="M60.75,-208.28C60.75,-208.28 60.75,-148.31 60.75,-148.31"/>
<polygon fill="#ff9800" stroke="#ff9800" points="64.25,-148.31 60.75,-138.31 57.25,-148.31 64.25,-148.31"/>
<text xml:space="preserve" text-anchor="middle" x="72.62" y="-166.45" font-family="Times New Roman,serif" font-size="14.00">谈恋爱</text>
</g>
<!-- node_05 -->
<g id="node5" class="node">
<title>node_05</title>
<polygon fill="#4caf50" stroke="black" points="121.5,-38.75 50,-38.75 50,0 121.5,0 121.5,-38.75"/>
<text xml:space="preserve" text-anchor="middle" x="85.75" y="-21.45" font-family="Times New Roman,serif" font-size="14.00" fill="white">死亡</text>
<text xml:space="preserve" text-anchor="middle" x="85.75" y="-7.2" font-family="Times New Roman,serif" font-size="14.00" fill="white">[node_05]</text>
</g>
<!-- node_02&#45;&gt;node_05 -->
<g id="edge2" class="edge">
<title>node_02&#45;&gt;node_05</title>
<path fill="none" stroke="black" d="M96.5,-208.49C96.5,-208.49 96.5,-50.63 96.5,-50.63"/>
<polygon fill="black" stroke="black" points="100,-50.63 96.5,-40.63 93,-50.63 100,-50.63"/>
</g>
<!-- node_03&#45;&gt;node_05 -->
<g id="edge4" class="edge">
<title>node_03&#45;&gt;node_05</title>
<path fill="none" stroke="gray" stroke-dasharray="5,2" d="M60.75,-97.34C60.75,-97.34 60.75,-50.64 60.75,-50.64"/>
<polygon fill="gray" stroke="gray" points="64.25,-50.64 60.75,-40.64 57.25,-50.64 64.25,-50.64"/>
</g>
<!-- node_04 -->
<g id="node4" class="node">
<title>node_04</title>
<polygon fill="#2196f3" stroke="black" points="236.5,-345.25 165,-345.25 165,-306.5 236.5,-306.5 236.5,-345.25"/>
<text xml:space="preserve" text-anchor="middle" x="200.75" y="-327.95" font-family="Times New Roman,serif" font-size="14.00" fill="white">战斗</text>
<text xml:space="preserve" text-anchor="middle" x="200.75" y="-313.7" font-family="Times New Roman,serif" font-size="14.00" fill="white">[node_04]</text>
</g>
</g>
</svg>
